<?xml version="1.0" standalone="no"?>
<!DOCTYPE svg PUBLIC "-//W3C//DTD SVG 20010904//EN"
 "http://www.w3.org/TR/2001/REC-SVG-20010904/DTD/svg10.dtd">
<svg version="1.0" xmlns="http://www.w3.org/2000/svg"
 width="200.000000pt" height="200.000000pt" viewBox="0 0 200.000000 200.000000"
 preserveAspectRatio="xMidYMid meet">
<metadata>
Created by potrace 1.14, written by Peter Selinger 2001-2017
</metadata>
<g transform="translate(0.000000,200.000000) scale(0.100000,-0.100000)"
fill="#000000" stroke="none">
<path d="M515 1536 c-146 -36 -236 -130 -241 -254 -6 -133 62 -193 383 -337
130 -58 199 -104 214 -141 20 -53 -22 -119 -101 -160 -46 -23 -163 -28 -255
-9 -143 30 -294 131 -326 218 -7 20 -15 37 -19 37 -11 0 -51 -69 -61 -103 -19
-69 7 -126 82 -186 157 -125 419 -177 564 -112 70 31 137 106 161 178 26 84
24 176 -6 236 -32 64 -78 96 -285 200 -93 47 -189 99 -212 116 -48 35 -74 78
-66 109 17 66 202 100 352 66 78 -18 130 -44 180 -89 l38 -35 20 23 c31 33 44
64 47 109 5 56 -13 70 -131 108 -112 37 -251 47 -338 26z"/>
<path d="M1594 1536 c-172 -42 -343 -199 -434 -400 -101 -222 -86 -500 33
-603 49 -42 141 -73 216 -73 127 0 333 203 370 365 6 25 12 30 37 29 36 -1 45
11 38 56 -7 45 -32 71 -74 74 -76 6 -350 -64 -350 -89 0 -7 14 -25 32 -40 30
-25 37 -27 103 -22 38 2 79 8 89 12 17 8 18 5 12 -31 -23 -123 -197 -311 -265
-286 -144 52 -175 352 -64 607 60 135 192 289 291 339 157 79 240 -34 107
-146 -19 -16 -19 -19 -5 -45 9 -15 27 -34 42 -42 24 -14 28 -14 48 4 68 62 94
177 53 234 -46 63 -158 86 -279 57z"/>
</g>
</svg>
